<svg xmlns="http://www.w3.org/2000/svg" width="251" height="44"><path d="M98.1 19.4c0 4 .1 9.8-.1 10.3-.1.4-.4.4-.6.4v.3h3.1v-.3c-.2 0-.5 0-.6-.4-.3-.9 0-15.2 0-15.2h-.3l-6.4 9-6.4-9h-.3s.3 14.2 0 15.2c-.1.4-.4.4-.6.4v.3H89v-.3c-.2 0-.5 0-.6-.4-.2-.5-.2-6.3-.1-10.3l5 6.8 4.8-6.8zm49.1 1.3c0-5.2 0-5.8.8-5.9v-.2h-3.3v.2c.9.1.9.7.9 5.8v5.7c-.9-1.2-1.6-1.9-2.5-3-1.4-1.6-3.7-4.4-7.6-9h-.3v9.4c0 5.5 0 6.1-.9 6.2v.2h3.4v-.3c-.9-.1-.9-.7-.9-6.1v-5.3c1 1.3 1.7 2 2.6 3.1 1.4 1.6 3.7 4.3 7.5 8.8h.3v-9.6zm-24.5 3.2c0 5.5 0 6.1-.8 6.2v.3h8.3c0-.9 0-1.8.1-2.5h-.2c-.2.8-.7.9-1.6.9H125c-.4 0-.4-.1-.4-.5v-5.1h2.8c1.4 0 1.8 0 1.9.6h.2v-2.7h-.2c-.1.5-.6.5-2 .5h-2.8v-5.3h3.1c1.4 0 2 .1 2.1 1h.2c0-.9 0-1.7.1-2.6h-8.2v.3c.7.1.7.7.7 5.8v3.1zM74 12.9c0 .4.4.8.9.8s.8-.4.8-.8-.3-.8-.8-.8-.9.4-.9.8zm3.2 0c0 .4.4.8.9.8s.8-.4.8-.8-.4-.8-.8-.8c-.5 0-.9.4-.9.8zm-6.9 11c0 2.1.4 3.4 1.3 4.5 1 1.4 2.7 2.1 4.8 2.1 2 0 3.6-.8 4.5-1.9.9-1.1 1.4-2.6 1.4-4.9v-3c0-5.2 0-5.8.8-5.9v-.2h-3.4v.2c.9.1.9.7.9 5.9v3c0 1.8-.3 3-1.1 3.8-.7.9-1.8 1.3-3.1 1.3s-2.5-.5-3.1-1.3c-.7-.8-1-1.9-1-3.7v-3c0-5.2 0-5.8.9-5.8v-.3h-3.6v.3c.8.1.8.7.8 5.8v3.1zm-5.5-1.7c0 2.2-.8 4-2.1 5.1-1.1.9-2.6 1.4-4.3 1.4-.5 0-1 0-1.4-.1-.2 0-.2-.1-.2-.3v-12c.5 0 1-.1 1.7-.1 1.6 0 3.1.4 4.1 1.1 1.3 1 2.2 2.8 2.2 4.9zm2-.1c0-2.7-1.2-5.1-3.2-6.3-1.4-.8-3-1.2-5.3-1.2H56c-.7 0-1.5 0-2 .1v.3c.8.1.8.6.8 5.8v3.1c0 5.5 0 6.1-.9 6.2v.3h1.9c.7 0 1.6.1 2.2.1 2.5 0 4.4-.5 5.8-1.7 1.9-1.6 3-3.8 3-6.7zm49.5-2.7c0 4 .1 9.8-.1 10.3-.1.4-.4.4-.6.4v.3h3.1v-.3c-.2 0-.5 0-.6-.4-.3-.9 0-15.2 0-15.2h-.3l-6.4 9-6.4-9h-.3s.3 14.2 0 15.2c-.1.4-.4.4-.6.4v.3h3.1v-.3c-.2 0-.5 0-.6-.4-.2-.5-.2-6.3-.1-10.3l5 6.8 4.8-6.8zM237 23.9c0 5.5 0 6.1-.8 6.2v.3h8.3c0-.9 0-1.8.1-2.5h-.2c-.2.8-.7.9-1.6.9h-3.5c-.4 0-.4-.1-.4-.5v-5.1h2.8c1.4 0 1.8 0 1.9.6h.2v-2.7h-.2c-.1.5-.6.5-2 .5h-2.7v-5.3h3.1c1.4 0 2 .1 2.1 1h.2c0-.9 0-1.7.1-2.5h-8.2v.3c.7.1.7.7.7 5.8v3zm-17-1.4c0 5.1 3.6 8.1 8.4 8.1 1.7 0 3-.2 4.2-.6v-3.1c0-3.2 0-3.6.7-3.7V23h-3.4v.3c.9.1.9.9.9 3.8v1.6c-.6.2-1.4.2-2.2.2-3.7 0-6.4-2.5-6.4-6.4 0-3.9 2.7-6.4 6.7-6.4 1 0 2 .2 2.5.4.4.2.7.5.8 1h.2c0-1 0-1.6.1-2.7-.5-.1-1.2-.2-1.6-.3-.7-.1-1.3-.1-2.1-.1-5 0-8.8 3-8.8 8.1zm-3.2-1.7c0-5.2 0-5.8.8-5.9v-.2h-3.3v.2c.9.1.9.7.9 5.8v5.7c-.9-1.2-1.6-1.9-2.4-3-1.4-1.6-3.7-4.4-7.6-9h-.3v9.4c0 5.5 0 6.1-.9 6.2v.2h3.4v-.3c-.9-.1-.9-.7-.9-6.1v-5.3c1 1.3 1.7 2 2.6 3.1 1.4 1.6 3.7 4.3 7.5 8.8h.3v-9.6zm-24.5 3.5c1.9-4.9 2.1-5.5 2.3-6 .2.6.4 1.1 2.2 5.9v.1h-4.5zm5.1 1.5c1.4 3.6 1.6 4.2.8 4.2v.3h3.5V30c-.6-.1-.9-.7-3.1-6.2l-3.7-9.5h-.3l-3.9 9.5c-2.3 5.6-2.6 6.2-3.2 6.2v.3h3.3V30c-.8-.1-.6-.7.8-4.2h5.8zm-15.8-6.7c0 1.4-.7 2.3-1.5 2.7-.5.3-1.2.5-1.9.5h-.8v-6h1c2-.1 3.2 1 3.2 2.8zm-6.1 4.8c0 5.5 0 6.1-.8 6.2v.3h3.5v-.3c-.8-.1-.8-.7-.8-5.5v-.8h1c1.8 2.6 3.2 4.5 4.4 6.3.2.2.5.3.7.3h2.2v-.3c-.5-.1-1.1-.7-1.7-1.4-2.9-4-3.4-4.6-3.8-5.2.5-.1 1-.4 1.4-.7.8-.6 1.9-1.8 1.9-3.7 0-2.3-1.4-3.5-2.6-3.9-.8-.3-1.7-.4-2.8-.4-.5 0-1.3 0-1.9.1h-1.6v.2c.8 0 .8.7.8 5.8v3zm-5.5-1.5c0 3.8-2.6 6.4-6 6.4s-6-2.7-6-6.4c0-3.6 2.6-6.4 6-6.4 3.4.1 6 2.8 6 6.4zm2-.1c0-4.5-3.4-7.9-7.8-7.9-4.7 0-8.2 3.4-8.2 8.1 0 4.5 3.5 8 7.9 8 4.8 0 8.1-3.6 8.1-8.2zM38.9 28.6c-.1-.6-.3-1.1-.7-1.5-.2-.2-.4-.3-.7-.4-.3-.1-.7-.1-1-.1h-.6l.1.6c0 .6.3 1.1.7 1.5.4.4.9.6 1.5.6.1 0 .8-.1.8-.1l-.1-.6zm2.8-18.4l-.7-.8-.7.7c-.6.7-1 1.6-1 2.6s.3 1.9.9 2.5l.6.7.6-.7c.6-.7 1-1.6 1-2.6.1-.9-.2-1.8-.7-2.4zm2.6 11.6H44c0 .2-.1.4-.1.6 0 .6.4 1.2 1 1.3l.3.1v-.3c.1-.6-.2-1.2-.8-1.4 0-.3 0-.3-.1-.3zm-5.2-7.6l-.3-.7-.6.3c-.3.1-.5.3-.7.5-.8.8-1 1.9-.6 2.9l.3.7.7-.3c.3-.1.5-.3.7-.5.7-.7.9-1.9.5-2.9zm5.5 11.1c0-.3-.1-.6-.3-.8-.1-.2-.3-.5-.5-.6-.3-.2-.6-.4-1-.4h-1.1l.1.6c.1.5.3 1 .7 1.4.2.2.4.3.7.4.1 0 .3.1.4.1h.5c.2 0 .4 0 .6-.1l-.1-.6zm-2 1.1l-.7-.5-.3.5c-.1.2-.3.4-.4.6-.3.6-.3 1.3-.2 1.9.1.6.5 1.1.9 1.4.1.1.2.2.4.3l.8.5.5-.7c.2-.3.4-.7.4-1.1.1-1.1-.4-2.3-1.4-2.9zm-4.4-6.6l-1.4-.6-.6 1.4c-.2.7-.3 1.3-.3 1.9 0 1.9 1.1 3.6 2.9 4.4l1.5.6.5-1.4c.3-.6.4-1.3.4-1.9 0-2-1.2-3.7-3-4.4zm6-3.8l-.8-1.1-1.1.7c-1.2.8-1.9 2.1-1.9 3.6 0 .9.2 1.7.7 2.4l.8 1.1c.6-.4 1.3-.8 1.8-1.3.7-.7 1.1-1.7 1.2-2.7v-.3c.1-.9-.2-1.7-.7-2.4zM38 10.1c-1.6 0-3 1.3-3 2.8v.9h.9c1.6 0 3-1.3 3-2.8v-.9H38zm-2.1 28.6c-.1 0-.2-.1-.3-.1-.1.1-.2.2-.2.4-.1.3 0 .6.1.8.1.2.3.3.5.4l.3.2.1-.2c.1-.2.1-.3.1-.4 0-.3-.2-.5-.4-.7.1-.2 0-.3-.2-.4zm-1.6-1c-.2-.3-.4-.6-.6-.8-.5.1-1 .2-1.4.5-.6.3-1.1.7-1.4 1.2-.2.2-.3.5-.4.8-.2.8-.1 1.5.3 2.2l.7 1.1 1.1-.5c1.1-.4 1.8-1.1 2-1.9.2-.7 0-1.4-.3-2.1.1-.3.1-.4 0-.5zm-4.3 3c0-.1-.1-.3-.2-.4-.1-.1-.1-.2-.2-.3l-.6.2c-.8.3-1.3 1.2-1.3 2 0 .2 0 .4.1.6 0 .1 0 .1.1.3l.2.5.6-.2c.8-.3 1.3-1.2 1.3-2.1 0-.1 0-.3-.1-.4.2-.1.2-.2.1-.2zm5.5-7l-.9-.1-.2 1c0 .2-.1.4-.1.6 0 1.6 1.2 3.1 2.7 3.4l.9.2.2-1.2v-.4c.1-1.7-1.1-3.2-2.6-3.5zm4.9-3.5c-2-.9-4.2 0-5 1.6l-.5.9 1 .4c.5.2 1.1.3 1.6.3 1.5 0 2.8-.8 3.4-2l.5-.9-1-.3zM34.3 2.9l-.1-.1c-.3-.3-.7-.6-1.1-.7-.4-.2-.7-.3-1.1-.3-.1 0-.3-.1-.4-.1-.3 0-.5-.1-.8-.1-.1.4-.2.9-.2 1.3s.1.9.2 1.3.4.7.6 1c.4.4.9.7 1.5 1 .7.2 1.3.3 2 .4 0 0 .1-.7.1-.8.2-1.2 0-2.2-.7-2.9zm7.2 30.5l-.2-.5-.5.1c-.5.1-1 .5-1.3.9-.2.3-.3.6-.2.9 0 .3.1.6.2.9v.1l.6-.1c.9-.2 1.5-1 1.5-1.8 0-.2 0-.4-.1-.5zM36.2 8.8c-.4-.8-1.2-1.3-2.1-1.3-.5 0-.9.1-1.3.4l-.6.5.4.7c.5.8 1.3 1.3 2.1 1.3.4 0 .8-.1 1.3-.4l.6-.4-.4-.8zM10 3.8h-.3c-.5 0-1 .4-1.1 1v.3l.2.1h.3c.6 0 1-.5 1.1-1 0-.1 0-.2.1-.3l-.3-.1zm2.1 30.7h-.4c-.8 0-1.5.6-1.6 1.5l-.1.5.4.1c.2.1.4.1.5.1.7 0 1.4-.6 1.6-1.5l.1-.5-.5-.2zm-8-10.1c-.1-1.6-1.2-2.9-2.7-3.1H.9l-.9.2.1 1c.1 1.6 1.2 3 2.7 3.1h.6l.9-.1-.2-1.1zm4.3-4.5c-1.4-.4-2.7.1-3.3 1.2-.1.3-.3.6-.3 1l-.1.9 1 .2c.3.1.5.1.8.1 1.1 0 2.1-.5 2.6-1.4.2-.3.3-.5.3-.9l.1-.9-1.1-.2zm4.1-16.6l-.7-.5-.5.7c-.3.5-.5 1.1-.5 1.7 0 .9.4 1.7 1 2.2l.7.6.5-.7c.4-.5.6-1.1.6-1.7 0-1-.4-1.8-1.1-2.3zM9.4 15.8l-.1-1-.8.1c-.2 0-.3 0-.5.1-1.2.3-2 1.7-1.8 3.2l.1 1h.8c.2 0 .3 0 .5-.1 1.3-.4 2-1.8 1.8-3.3zM3.2 26.1c-1 0-1.9.8-2 1.9l-.1.6c.3 0 .5.1.8.1 1.1.1 2-.9 2.1-1.9v-.6c-.2-.1-.8-.1-.8-.1zM20.3.1h-.6c-1.3 0-2.5 1-2.7 2.2l-.1.7c.5.1 1.1.3 1.6.2.4 0 .8-.2 1.2-.4.6-.4 1.1-1 1.3-1.8l.1-.8-.8-.1zm4.4.1h-.1c-.9-.3-1.9-.1-2.5.6-.2.2-.4.5-.5.8l-.3.7.6.3c.2.1.2.1.4.1s.3.1.5.1c1 0 1.9-.6 2.3-1.5l.3-.7c-.3-.2-.5-.3-.7-.4zM40 7.8c-.1-.4-.2-.7-.5-1-.5-.7-1.3-1.2-2.1-1.4h-.1l-1.1-.2s-.3 1.1-.3 1.2c-.1.9.4 1.8 1.1 2.4.5.4 1 .7 1.7.8l1 .3.2-.6c.1-.6.2-1 .1-1.5zM29.7 3c-.1-.4-.2-.7-.5-1.1-.3-.4-.6-.7-1-.9-.6-.4-1.4-.4-2.1-.5-.1.6-.2 1.2-.1 1.7.1.4.3.8.5 1.1.5.7 1.3 1.1 2.2 1.2l.9.1c.1-.5.2-1.1.1-1.6zM13.4 37c-.3-.1-.6-.1-.9-.1-1.4 0-2.7 1-3 2.3l-.3 1 .9.2c.3.1.6.1.9.1 1.4 0 2.6-.9 3.1-2.3l.2-.9-.9-.3zm13 5.3c-.4-.3-.9-.4-1.3-.4-.7 0-1.3.3-1.7.9l-.4.4.5.4c.4.3.8.4 1.3.4.7 0 1.3-.3 1.7-.9l.4-.5-.5-.3zm-4.3.9c-.1-.4-.2-.8-.5-1.1-.4-.4-.9-.7-1.4-.8h-.8l-.7.1c.1.6.2 1.3.6 1.8.4.4.9.7 1.4.8.2 0 .3.1.5.1h.4l.7-.1c-.1-.4-.1-.6-.2-.8zm-17.7-14l-.3-.5-.6.3c-.8.3-1.3 1.1-1.3 2 0 .3.1.6.2.9l.3.6.6-.2c.8-.4 1.3-1.2 1.3-2 0-.5-.1-.8-.2-1.1zM16.5 3.8c0-.1 0-.3-.1-.4v-.1c-.3-.9-.9-1.6-1.7-1.7H14l-.6.2.1.7c0 .3.1.5.2.8.2.5.5 1 1.1 1.3.3.1.6.2.8.2.2 0 .4 0 .6-.1l.4-.1-.1-.8zM9.4 37.1c-.3-.2-.4-.3-.6-.4-.9-.4-1.9-.2-2.6.5l-.4.5.5.5c.2.1.4.3.6.4.3.1.6.2.9.2.6 0 1.2-.3 1.7-.7l.4-.5-.5-.5zM30.6 5.2c-.1 0-.2-.1-.4-.1 0 0-.1.4-.1.5 0 .4.1.8.3 1.1.3.3.6.5 1 .6h.2l.1-.3v-.3c0-.4-.1-.7-.4-1-.2-.3-.4-.4-.7-.5zm-20 25c-.1-.3-.2-.5-.4-.7-.2-.2-.4-.3-.6-.3-.1 0-.2-.1-.4-.1-.1.4-.2.9 0 1.3s.5.7.9.8l.4.1s.1-.4.1-.5c.1-.2.1-.4 0-.6zm-1.4-5.7c-.1-.4-.3-.8-.5-1.2-1.6.2-3 1.3-3.6 2.8-.6 1.5-.4 3.2.5 4.5.9-.2 1.8-.6 2.5-1.3.9-.8 1.4-2 1.4-3.3 0-.5-.1-1.1-.3-1.5zm-5.9-9.7l-1.1-.7-.7 1.1c-.5.7-.7 1.6-.7 2.4 0 1.4.7 2.7 1.8 3.5l1.1.7.7-1.1c.6-.7.8-1.5.8-2.4 0-1.4-.7-2.7-1.9-3.5zm7.2-7.4l-.6-1.8-1.7.6c-2.4.8-4.1 3-4.1 5.5 0 1.2.5 2.3.8 3.5l1.7-.6c2.4-.8 4.1-3 4.1-5.5.1-.6 0-1.2-.2-1.7zm4.9 33.2c0-.3-.1-.6-.2-.9l-.2-.5c-.4.2-.8.4-1.1.7-.3.4-.5.8-.5 1.3 0 .3.1.5.2.9l.2.4.5-.2c.7-.3 1-1 1.1-1.7zm-5.3-8.9c-.7-.4-1.5-.7-2.3-.7-1.6 0-3.1.8-4 2.3l-.7 1.3 1.4.8c.7.4 1.5.6 2.3.6 1.6 0 3.1-.8 3.9-2.2l.8-1.2-1.4-.9zm30.1-14.3l-.1-.4s-.7.1-.7.2l-.6.3c-.3.3-.5.7-.6 1.1v.2l.1.4.7-.1.6-.3c.3-.3.5-.7.6-1.1v-.3zM16.9 39.7l-.6-.3c-.1.3-.3.6-.4.9-.5 1.1.1 2.4 1.1 3l.6.3.3-.6c.3-.4.3-.8.3-1.1 0-1.1-.5-1.8-1.3-2.2zm229.5-23.1c0-1.2.9-2.1 2.2-2.1 1.2 0 2.1.9 2.1 2.1 0 1.2-.9 2.1-2.1 2.1-1.2.1-2.2-.9-2.2-2.1zm4 0c0-1.1-.7-1.8-1.8-1.8s-1.8.7-1.8 1.8.7 1.8 1.8 1.8 1.8-.7 1.8-1.8zm-2 .8h.3v.3h-1.1v-.3h.3v-1.7h-.3v-.3h1.2c.7 0 .9.3.9.6s-.2.5-.6.5c.4 0 .5.2.5.5v.2c0 .1 0 .2.1.2 0 0 .1 0 .1-.2l.2.1c-.1.2-.2.4-.4.4-.3 0-.5-.2-.5-.5V17c0-.2-.1-.3-.3-.3h-.3v.7zm.3-.9c.3 0 .4-.1.4-.4 0-.2-.1-.3-.4-.3h-.3v.7h.3z" fill="#ff5000"/></svg>